<svg xmlns="http://www.w3.org/2000/svg" viewBox="0 0 240.6 193.346">
	<path fill="var(--secondary-color)" d="M13.327 152.737a35.584 35.584 0 000 24.431c1.123 3.038 2.689 6.3 1.632 9.362a7.955 7.955 0 01-4.063 4.274 23.625 23.625 0 01-5.763 1.772l-.388.321c-3.125-7.061-5.384-14.785-4.431-22.45s5.7-15.216 13.013-17.71z"/>
	<path fill="var(--primary-color)" d="M13.396 152.882a30.415 30.415 0 00-7.561 17.118 13.1 13.1 0 00.149 4.1 7.512 7.512 0 001.868 3.484 15.551 15.551 0 012.413 2.888 4.6 4.6 0 01.225 3.755 11.952 11.952 0 01-2.648 3.95 11.734 11.734 0 00-2.941 4.391.17.17 0 01-.323-.107c.877-3.023 3.812-4.741 5.211-7.464a4.658 4.658 0 00.315-4.087 12.062 12.062 0 00-2.394-2.979 8.016 8.016 0 01-1.954-3.339 12.108 12.108 0 01-.306-4.08 29.508 29.508 0 012.155-8.967 30.955 30.955 0 015.566-8.92.17.17 0 01.225.255zM5.929 167.94a4.563 4.563 0 01-3.474-4.78.17.17 0 01.34.017 4.225 4.225 0 003.24 4.44zM7.366 177.172a8.8 8.8 0 003.928-5.065.17.17 0 01.323.107 9.149 9.149 0 01-4.1 5.263zM9.257 158.596a2.583 2.583 0 002.448-.12.17.17 0 01.153.3 2.894 2.894 0 01-2.708.143z"/>
	<path fill="var(--secondary-color)" d="M35.606 166.427a34.021 34.021 0 00-4.695 3.627 35.861 35.861 0 00-8.104 10.951 34.822 34.822 0 00-1.908 4.936c-.7 2.336-1.281 4.924-2.675 6.835l-.465.575h-13.177a51.208 51.208 0 014.852-13.525 33.23 33.23 0 013.163-4.85 29.361 29.361 0 011.956-2.238 24.431 24.431 0 016.113-4.579 19.4 19.4 0 0114.571-1.841z"/>
	<path fill="var(--primary-color)" d="M35.579 166.582A30.415 30.415 0 0019.235 175.702a13.1 13.1 0 00-2.35 3.364 7.512 7.512 0 00-.606 3.907 15.549 15.549 0 01.188 3.759 4.6 4.6 0 01-2.081 3.133 11.95 11.95 0 01-4.493 1.56 11.736 11.736 0 00-4.992 1.735.17.17 0 01-.194-.28c2.52-1.886 5.9-1.49 8.655-2.822a4.658 4.658 0 002.712-3.074 12.063 12.063 0 00-.118-3.82 8.016 8.016 0 01.45-3.842 12.109 12.109 0 012.212-3.442 29.508 29.508 0 017.12-5.862 30.955 30.955 0 019.815-3.771.17.17 0 01.026.335zM20.548 174.112a4.563 4.563 0 01.1-5.908.17.17 0 01.261.218 4.225 4.225 0 00-.086 5.5zM16.137 182.349a8.8 8.8 0 006.186-1.68.17.17 0 01.194.28 9.148 9.148 0 01-6.44 1.735zM28.828 168.658a2.583 2.583 0 002.029 1.375.17.17 0 01-.061.335 2.894 2.894 0 01-2.248-1.516z"/>
	<path fill="var(--accent-color)" d="M170.687 7.226a58.087 58.087 0 00-60.45 58.035h60.45V7.226zM154.467 69.432l-42.208 42.203A57.92 57.92 0 0194.076 69.432z"/>
	<path fill="#ffb6b6" d="M53.754 179.063h-4.282v11.207h2.9zM79.157 190.27l1.382-11.207h-4.288l0 11.207zM63.815 63.5a7.615 7.615 0 10.001 0zM55.298 91.265v25.47a3.555 3.555 0 105.246.175v-4.4l14.1-.185-1.9-12.087-11.9056.616.1846-10.069z"/>
	<path fill="#e4e4e4" d="M54.438 96.465a1.489 1.489 0 01-1.3-1.84l1.8-7.28a4.136 4.136 0 118.233.809L61.932 97.179zM59.615 106.913a1.62 1.62 0 01-1.613-1.498 82.116 82.116 0 00-2.624-12.62 9.988 9.988 0 0115.779-10.43 9.86 9.86 0 013.8 6.742 48.854 48.854 0 01-1.353 16.343 1.623 1.623 0 01-1.539 1.223z"/>
	<path fill="#ffb6b6" d="M95.653 89.363a3.494 3.494 0 10-1.533-3.877l-15.542 5.277-3-2.623-4.551 4.014 4.865 5.161a2.648 2.648 0 003.131.542z"/>
	<path fill="#e4e4e4" d="M72.372 96.008a1.489 1.489 0 01-2.233-.317l-4.052-6.31a4.136 4.136 0 016.246-5.424l5.69 4.847a1.489 1.489 0 01.014 2.255zM173.884 65.262h55.725a57.885 57.885 0 00-15.851-39.874z"/>
	<path fill="#2f2e41" stroke="var(--text-color)" stroke-width="0.1" d="M74.117 109.373c5.715 9.955 6.2 43.711 6.448 78.575h-4.858l-11.614-50.858-10.664 49.531h-4.74l3.318-55.693s-.978-11.178 4.029-17.774l1.219-3.521zM48.73 189.321h5.719a3.647 3.647 0 013.646 3.765h-9.368zM75.513 189.321h5.722a3.647 3.647 0 013.646 3.765h-9.368zM64.298 60.589a7.637 7.637 0 00-2.672-.34 7.026 7.026 0 00-6.306 5.056 34.488 34.488 0 00-.985 12.142c2.52 1.14 6.372 1.983 12.061 1.29l.837-3.507v3.4q1.13-.167 2.44-.432v-7.5h3.486c0-5.584-1.733-10.109-7.317-10.109z"/>
	<path fill="var(--secondary-color)" d="M229.672 69.432a57.833 57.833 0 01-55.787 58.034V69.432zM130.423 127.844a.287.287 0 010-.575h109.458a.287.287 0 110 .575zM240.025 55.016a.287.287 0 11.575 0v109.458a.287.287 0 11-.575 0zM223.65 133.302a4.597 4.597 0 10.001 0zM111.894 3.735a4.597 4.597 0 10.001 0z"/>
	<path fill="var(--tertiary-color)" d="M128.341 111.638a57.886 57.886 0 0042.21 15.831V69.431zM109.74 192.771a.287.287 0 010 .575H.287a.287.287 0 110-.575z"/>
	<path fill="var(--accent-color)" filter="saturate(0.3) brightness(0.55)" d="M213.758 18.162A57.915 57.915 0 00173.884 0v58.036zM118.881 105.018A52.656 52.656 0 01103.31 69.453h1.148a51.51 51.51 0 0015.233 34.75zM130.375 93.498a52.833 52.833 0 01-13-24.066h1.149A51.709 51.709 0 00131.193 92.7zM141.404 82.421a52.792 52.792 0 01-8-12.989h1.266a51.592 51.592 0 007.616 12.253Z"/>
</svg>
