<svg xmlns="http://www.w3.org/2000/svg" viewBox="0 0 221.297 178.619">
	<path fill="var(--text-color)" d="M145.692 100.594c-4.671 2.8-12.993 6.311-21.5 2.7l-5.5-2.332 11.016-12.349a52.611 52.611 0 1115.978 11.977zm-11.08-4.608a23.144 23.144 0 0010.538-5.377 44.141 44.141 0 10-3.606-2.536zM107.176 162.935l-5.5 2.332c-8.5 3.607-16.826.1-21.5-2.7a52.75 52.75 0 1115.984-11.981zm-26.452-10.36a23.142 23.142 0 0010.538 5.377l-6.932-7.77 3.039-2.855a44.186 44.186 0 10-8.994 6.539z"/>
	<path fill="var(--accent-color)" d="M135.575 88.476a48.4 48.4 0 119.868 7.173c-3.347 2.381-11.511 7.131-19.577 3.71zM90.3 150.2a48.4 48.4 0 10-9.869 7.176c3.347 2.381 11.511 7.131 19.577 3.71z"/>
	<path fill="var(--accent-color)" filter="brightness(.9)" d="M164.759 101.518a48.417 48.417 0 00-.007-96.449l4.279-.19a48.415 48.415 0 010 96.83zM61.425 163.138a48.417 48.417 0 01.007-96.449l-4.279-.19a48.415 48.415 0 100 96.83z"/>
	<path fill="#2f2e41" d="M180.087 37.809c-3.168-5.352-9.435-5.6-9.435-5.6s-6.107-.781-10.024 7.371c-3.651 7.6-8.691 14.934-.811 16.713l1.423-4.43.881 4.76a30.834 30.834 0 003.371.058c8.439-.272 16.475.08 16.216-2.948C181.365 49.704 183.135 42.959 180.087 37.809ZM159.367 84.678a12.508 12.508 0 01-.4 1.74c-.2.557-.5 1.073-.686 1.636a5.468 5.468 0 001.5 5.182 8.456 8.456 0 004.123 2.448 16.822 16.822 0 003.543.372c3.293.112 6.671.212 9.791-.847a17.011 17.011 0 002.845-1.292 2.13 2.13 0 00.738-.581 2.031 2.031 0 00.266-1.192c-.007-1.4-.29-2.785-.223-4.179a16.57 16.57 0 00.111-2.314 4.269 4.269 0 00-3.263-3.677 8.861 8.861 0 00-2.7 0 68.939 68.939 0 01-7.038.315c-2.4-.015-4.787-.382-7.177-.42-.706-.011-.692.207-.917.89A16.662 16.662 0 00159.367 84.678Z"/>
	<path fill="#90575F" d="M166.181 50.216a4.191 4.191 0 01-.6 1.727L175.5 52a5.17 5.17 0 01-.864-3.475l-7.766-1.169c-.471.18-.594 2.355-.689 2.86z"/>
	<path fill="#a0616a" d="M170.872 36.474a7.198 7.198 0 10.001 0z"/>
	<path fill="#fff" d="M174.7 50.14c-.1.02 0 .58.5 2.26a22.3 22.3 0 01.2 2.81 10.4 10.4 0 010 .73c-.6 1.34-.7 2.97-1.8 4.03a4.762 4.762 0 01-3.6 1.13 3.972 3.972 0 01-1.5-.3 4.414 4.414 0 01-1.3-1.01 17.88 17.88 0 01-.3-.34 12.87 12.87 0 00-.2-.3 10.74 10.74 0 01-1.2-5.68c.1-1.45.6-2.65.5-2.63 0 .01-.1.2-.3.64a25.14 25.14 0 01-2.4 1.9c-1.9 2.04-5.5 1.96-7.2 4.15a6.8 6.8 0 00-1.2 2.69 6.44 6.44 0 00-.2 3.23 16.82 16.82 0 00-.2.49 6.4 6.4 0 00-.2 1.53 7.277 7.277 0 00.3 2.3c.1.47.4.91.5 1.37a5 5 0 01.4 2.05c-.1.96-.4 1.9-.4 2.86a9.272 9.272 0 001.3 4.3 3.16 3.16 0 012.6-1.95 19.49 19.49 0 01-.7 1.99 3.776 3.776 0 00.4 3.54 4.036 4.036 0 002.5 1.11 27.98 27.98 0 003.5.3 4.23 4.23 0 002.2-.24 1.712 1.712 0 00.4.06c1 .06 2.1.09 3.1.07a80.29 80.29 0 004.6-.29 21.2 21.2 0 014.1 1.54 3.315 3.315 0 001.9.54.545.545 0 00.4-.16.677.677 0 000-.55 23.66 23.66 0 01-.2-3.52 2.392 2.392 0 001.1-.97 25.46 25.46 0 001.2-2.51 12.22 12.22 0 001.4-2.59 5.214 5.214 0 00.2-1.48 13.46 13.46 0 01.1-4.59c.2-.49.4-.95.6-1.44a8.51 8.51 0 00.3-2.31c0-1.52.1-3.04.1-4.57a7.368 7.368 0 00-.3-2.21c-.1-.26-.3-.6-.5-.95a10.78 10.78 0 000-.12 3.21 3.21 0 00-.5-1.26 2.942 2.942 0 00-.8-.7 17.92 17.92 0 00-4.8-2.23 7.355 7.355 0 01-1.4-.48c-.5-.24-1.8-.37-2.1-.75-.4-.42-1-1.53-1.1-1.49z"/>
	<path fill="#2f2e41" d="M149.977 83.548a7.105 7.105 0 00-1.976-.21 4.932 4.932 0 00-4.579 5.815 8.285 8.285 0 00.783 2.14 7.149 7.149 0 002.123 2.806 8.266 8.266 0 001.874.892l5.11 1.925c.752.283 1.5.566 2.263.829a44.262 44.262 0 0011.819 2.35 12.8 12.8 0 003.67-.186 1.2 1.2 0 00.752-.406 1.287 1.287 0 00.168-.555l.314-2.2a1.844 1.844 0 00-.027-.928 1.778 1.778 0 00-.849-.8c-3.36-1.93-7.282-2.994-10.11-5.642-.666-.623-1.223-1.612-2.032-2.035-.917-.48-2-.754-2.945-1.2A32.632 32.632 0 00149.977 83.548Z"/>
	<path fill="#a0616a" d="M177.613 101.237a.424.424 0 00.286-.084.442.442 0 00.089-.329l-.008-3a9.217 9.217 0 00-2.774-.669l-4.418-.591c.1.014-.691 1.9-.569 2.155.214.445 1.85.839 2.312 1.048A11.562 11.562 0 00177.613 101.237ZM163.752 97.813a3.58 3.58 0 00-2.305.9c-.685.823-.393 2.051-.067 3.071A1 1 0 00162.539 102.619a4.015 4.015 0 002.235-.287 9.8 9.8 0 00.868-.645 5.568 5.568 0 011.6-.73 16.142 16.142 0 013.2-.66 4.985 4.985 0 001.262-.222 1.4 1.4 0 00.889-.863 2.057 2.057 0 00-.467-1.579 6.3 6.3 0 00-1.344-1.661c-.823-.639-1.23-.149-2.06.261a17.474 17.474 0 01-4.975 1.585Z"/>
	<path fill="#2f2e41" d="M161.576 98.559l-5.3-1.565a7.01 7.01 0 00-1.971-.382 2.366 2.366 0 00-1.81.732 3.526 3.526 0 00-.631 1.766l-.219 1.337a6.715 6.715 0 00-.123 2.053 2.27 2.27 0 001.052 1.691 3.624 3.624 0 002.449.037 26.664 26.664 0 015.019-.538 4.028 4.028 0 001.859-.3 2.321 2.321 0 001.133-1.85C163.139 100.406 162.759 98.915 161.576 98.559ZM179.696 97.2a12.861 12.861 0 001.951-.741 8.674 8.674 0 012.911-.321 1.409 1.409 0 011.66 1.587l.443 3.1a4.865 4.865 0 01.036 1.757 1.652 1.652 0 01-1.092 1.277 3.249 3.249 0 01-2.026-.553c-1.635-.726-3.535-.541-5.239-1.084a1.174 1.174 0 01-.784-.561 1.277 1.277 0 01-.061-.536 13.491 13.491 0 01.119-3.311C177.884 96.96 178.929 97.2 179.696 97.2ZM190.906 82.3a9.2 9.2 0 013.24-.221 3.415 3.415 0 013.429 3.855 9.118 9.118 0 01-1.982 5.824 5.285 5.285 0 01-1.133 1.091 7.46 7.46 0 01-1.474.71l-11.444 4.514a73.945 73.945 0 01-9.172 3.161.715.715 0 01-.962-.349 23.708 23.708 0 01-2.508-4.588.309.309 0 01.137-.488l8.094-4.651a8.188 8.188 0 001.648-1.135 4.092 4.092 0 00.846-1.178c.168-.35.183-1.177.4-1.437s.928-.274 1.259-.374a11.429 11.429 0 001.371-.518c1.811-.81 3.423-1.987 5.159-2.935A13.235 13.235 0 01190.906 82.3Z"/>
	<path fill="#2A293A" d="M155.079 86.516c1.806.566 9.432 4.487 10.739 5.856-.175.063-6.12-3.268-6.3-3.322a35.913 35.913 0 01-4.792-1.689c-.31-.143-2.012-.817-1.935-1.207C152.88 85.713 154.758 86.415 155.079 86.516ZM186.316 85.773c-1.391 1.044-3.191 2-4.57 3.077-.47.366-8.312 4.775-8.423 5.36 1.286.217 9.477-5.514 10.649-6.086a18.922 18.922 0 003.24-2.179c.262-.2 1.374-.817.621-1.045C187.409 84.772 186.629 85.564 186.316 85.773Z"/>
	<path fill="#d0cde1" d="M176.746 51.737H164.539a1.87 1.87 0 00-1.87 1.87v.685h-.133v1.531h.133v1.072h-.133v.919h.133v11.3a1.87 1.87 0 001.87 1.87h12.207a1.87 1.87 0 001.87-1.87V53.607a1.87 1.87 0 00-1.87-1.87Z"/>
	<path fill="#2f2e41" d="M178.687 37.296l-6.192-3.243-8.55 1.327-1.769 7.813 4.4-.17 1.23-2.87v2.823l2.032-.078 1.179-4.57.737 4.865 7.224-.148Z"/>
	<path fill="#a0616a" d="M157.656 81.288a3.218 3.218 0 001.156 1.15 2.26 2.26 0 001.987-.053 3.5 3.5 0 001.434-1.437 7.154 7.154 0 00.728-3.973c-.084-1.363-.375-2.705-.5-4.064-.094-.988-.1-1.982-.109-2.975a.989.989 0 01.125-.6 1.181 1.181 0 01.664-.331 5.338 5.338 0 002.906-2.937 5.091 5.091 0 00.724-2.7 2.123 2.123 0 00-1.7-1.988 2.728 2.728 0 00-2.052.957 8.8 8.8 0 00-2.576 5.149 19.953 19.953 0 01-.348 2.873c-.556 1.986-2.3 3.2-3.165 4.991A6.02 6.02 0 00157.656 81.288ZM183.276 73.7a3.754 3.754 0 01-2.1 2.023 2.907 2.907 0 01-1.83.112 2.029 2.029 0 01-1.34-1.2 3.229 3.229 0 01-.151-.9 9.281 9.281 0 01.433-3.97c.188-.482.441-.94.589-1.436a7.2 7.2 0 00.222-1.753l.16-3.654a2.381 2.381 0 00-.054-.792 2.5 2.5 0 00-1.107-1.188 7.278 7.278 0 01-2.708-2.874 2.017 2.017 0 01-.187-1.19 1.979 1.979 0 011.606-1.354 3.592 3.592 0 014.306 2.894c.072.412.071.834.113 1.25.089.883.369 1.735.545 2.605.432 2.144.208 4.36.636 6.5C182.759 70.569 184.106 71.739 183.276 73.7Z"/>
	<path fill="#fbbebe" d="M15.919 107.708a7.304 7.304 0 10.001 0zm4.976 14.653-2.275-2.212L14.05 121.569l.439 5.291 9.395-.436-2.886-3.922z"/>
	<path fill="#2f2e41" d="M61.26 131.7c0 0-3.79 3.7-4.02 6.9-.09 1.1 1.18 3.2 2.9 5.4-.23-.1-.47-.1-.73-.1-6.53-.4-9.54 1.4-9.54 1.4l-11.6 1.8-8.96 6.6c0 0 9.56 7.5 22.56.5l1.13-.8a44.14 44.14 0 00-2.07 5.4c-.2 1.3-5.13 9.1-5.93 9.5a2.083 2.083 0 00-.6.4 4.389 4.389 0 01-.13-.3c-.21-.4-2.26.9-3.19 2.1s5.37 7 8.42 8.5.52-3.4.52-3.4l-.82-4.4c1.14-1.7 4.63-6.5 5.84-7.6s8.29-14.4 8.29-14.4c0 0 .25-.5.4-1.1 2.17 2.3 4.17 4.2 4.68 4.5a6.4 6.4 0 011.35 1.5c-.49-.1-1.11 2.7-.88 4.4s10.25 1.3 14.05 0-2.37-3.2-2.37-3.2l-4.84-3.3a5.166 5.166 0 01-.37.5 38.78 38.78 0 01-2.98-3c-2.14-2.3-11.11-17.8-11.11-17.8z"/>
	<path fill="#fff" d="M39.889 148.757s-6.5 7.593-10.452 5.748-20.1-23.207-18.257-27.155 2.463-3.108 2.463-3.108l8.34.771-2.4-3.848a1.623 1.623 0 012.188.333c1.068 1.157 5.354 4.048 6.848 8.131s5.878 3.879 5.878 3.879Z"/>
	<path style="stroke:#3f3d56;stroke-width:0.5;stroke-dasharray:2.91;stroke-dashoffset:2.2;fill:none" d="M145.712 48.661a65.8 65.8 0 00-92.391 55.897"/>
	<path fill="#b3b3b3" d="M54.326 144.61l.552.457-.354.692-15.763 4.692-.149-.54.717-.742Z"/>
	<path fill="#d0cde1" d="M55.018 144.965l-16.324 5.1-9.951-18.8 16.036-4.028Z"/>
	<path fill="#3f3d56" d="M55.769 104.639l-4.877-.166 2.297 4.296zm93.764-54.116-2.727-4.044-2.14 4.394zM53.79 142.414l-.7.515-7.773-13.5.8-.375ZM52.182 143.165l-6.905 2.059-7.839-13.879 6.831-1.573Z"/>
	<path fill="#fbbebe" d="M32.73 132.868l1.43-.4s7.973-.9 8.089 1.6-9.16 1.343-9.16 1.343l-1.237-1.681ZM39.723 144.13l1.99-.817s6.007-2.693 4.284-4.448-7.037 1.293-7.037 1.293l-1.017.965Z"/>
	<path fill="#fff" d="M65.3 132.971l-10.182 10.516-9.226-16.2 8.461-10.653ZM37.949 140.253s3.24 3.229 2.5 3.988S27.627 154.976 24.627 151.784s-17.6-19.219-11.917-20.594 7.183 1.839 7.183 1.839l7.5 12.833ZM28.248 130.444l5.322 1.8-.087 3.843-5.629-.607Z"/>
	<path fill="#FFF" filter="brightness(.8)" d="M33.044 142.244l-5.734 3.357L20.758 135.524l6.324 8.3Z"/>
	<path fill="#2f2e41" d="M4.52 104.431a4.518 4.518 0 11-.001 0zM12.713 104.199a8.695 8.695 0 11-.001 0zM16.563 107.089h2.69a5.135 5.135 0 015.135 5.135H16.563Z"/>
	<path fill="var(--accent-color)" d="M170.805 56.895a1.531 1.531 0 10.001 0zM59.693 133.86l-6.088-8.906 2.581-3.195 6.326 9.163Z"/>
	<path fill="#e6e6e6" d="M59.522 137.44l-9.269-13.475.457-.552L59.94 136.919ZM58.327 138.751 49.058 125.277l.457-.552 9.225 13.507ZM57.31 139.716l-9.269-13.475.457-.552 9.225 13.507Z"/>
</svg>