<svg xmlns="http://www.w3.org/2000/svg" viewBox="0 0 236.149 217.314">
	<path fill="var(--tertiary-color)" d="M176.266 55.295a5 5 0 01-5-5V36.882a.312.312 0 01.506-.245l22.848 18.1a.312.312 0 01-.194.557zM82.7 109.105a8.835 8.835 0 10.001 0zm0 37.806a8.835 8.835 0 10.001 0zM104.949 78.415a1 1 0 110-5h53.428a1 1 0 110 5zm0 8.437a1 1 0 110-5h63.739a1 1 0 110 5zm0 29.369a1 1 0 010-5h53.428a1 1 0 110 5zm0 8.436a1 1 0 110-5h63.739a1 1 0 010 5zm0 29.37a1 1 0 010-5h53.428a1 1 0 010 5zm0 8.436a1 1 0 010-5h63.739a1 1 0 110 5z"/>
	<path fill="var(--accent-color)" d="M82.7 71.299a8.835 8.835 0 10.001 0zM179.142 213.461a28.9 28.9 0 0027.77.582 17.07 17.07 0 00-27.77-.582zM138.302 53.045a28.645 28.645 0 01-30.118.479 17.184 17.184 0 0130.118-.479zM44.448 153.436a28.644 28.644 0 01-30.117.481 17.195 17.195 0 0130.117-.481z"/>
	<path fill="var(--button-text-color)" d="M79.187 81.726a.5.5 0 011.123-1.466l1.345 1.031 3.178-4.146a.5.5 0 011.464 1.122l-3.738 4.874a.923.923 0 01-1.296.173zm0 37.674a.5.5 0 011.123-1.466l1.345 1.031 3.178-4.146a.5.5 0 011.464 1.122l-3.738 4.874a.923.923 0 01-1.296.173zm0 38a.5.5 0 011.123-1.466l1.345 1.031 3.178-4.146a.5.5 0 011.464 1.122l-3.738 4.874a.923.923 0 01-1.296.173z"/>
	<path fill="#2f2e41" d="M121.985 9.235a14.215 14.215 0 10.001 0M194.198 171.672a14.122 14.122 0 10.001 0zM42.347 123.777a14.148 14.148 0 110-.001"/>
	<path fill="#a0616a" d="M192.9 180.2a10.51 10.51 0 10.001 0zM29.45 118.25a10.569 10.569 0 10.001 0"/>
	<path fill="#ffb8b8" d="M121.88 17.8a10.58 10.58 0 10.001 0"/>
	<path style="fill:none;stroke:var(--text-color);stroke-dasharray:4;stroke-dashoffset:1.7;stroke-width:.7" d="M79.261 12.192A62.3 62.3 0 0017.649 73.811"/>
	<path style="fill:none;stroke:var(--text-color);stroke-dasharray:4.17;stroke-dashoffset:2;stroke-width:.7" d="M225.753 153.714A102 102 0 00179.582 18.218"/>
	<path fill="var(--text-color)" d="M20.578 71.571l-.5-.488-2.4 2.457-2.275-2.575-.522.462 2.772 3.136zM77.028 15.121l-.488-.5 2.457-2.4-2.575-2.275.462-.522 3.136 2.772zM180.295 21.843l.657-.232-1.145-3.239 3.315-.906-.185-.672-4.037 1.1zM224.117 150.404l.662-.218 1.072 3.264 3.178-1.307.265.645-3.871 1.592z"/>
	<path fill="#2f2e41" d="M112.162 21.748a14.39 14.39 0 008.224 2.541 8.818 8.818 0 01-3.5 1.438 29.016 29.016 0 0011.852.067 7.671 7.671 0 002.481-.852 3.14 3.14 0 001.531-2.048V16H113zM203.956 184.101a14.3 14.3 0 01-8.169 2.525 8.76 8.76 0 003.472 1.428 28.823 28.823 0 01-11.774.066 7.621 7.621 0 01-2.465-.847 3.119 3.119 0 01-1.521-2.035c-.258-1.476.892-2.816 2.087-3.72l9.414-2.518zm-16.91-12.234c-.152-1.6-2.109-2.581-3.64-2.1a4.578 4.578 0 00-2.839 3.6 5.164 5.164 0 00.7 3.9 3.553 3.553 0 003.522 1.526l2.863-3.319a12 12 0 00-.3-4.6zm21.542 2.283c-.152-1.6-2.109-2.581-3.64-2.1a4.578 4.578 0 00-2.839 3.6l4.222 5.426a4.085 4.085 0 002.863-3.319 12 12 0 00-.3-4.6zM39.654 112.037a7.486 7.486 0 00-6.9-3.672 14.668 14.668 0 00-4.171 1.168L17.584 120.671l2.569 8.011a24.385 24.385 0 011.456-5.292 8.194 8.194 0 013.558-4.056 11.6 11.6 0 015.887-.8c2.835.136 5.918.5 7.933 2.5a8.239 8.239 0 012.091 4.083 24.577 24.577 0 01.438 4.622 38.319 38.319 0 002.926-6.273A15.521 15.521 0 0045.53 118.384a7.142 7.142 0 00-1.637-4.83 4.685 4.685 0 00-4.712-1.483"/>
	<path fill="var(--text-color)" d="M59.724 199.296a9.659 9.659 0 01-9.648-9.651v-40.6h-.7V189.643A10.357 10.357 0 0059.721 200h107.5v-.704zM50.076 46.235a9.659 9.659 0 019.648-9.651H95v-.7H59.724A10.357 10.357 0 0049.379 46.232v63.4h.7zm122.142-9.692a3.043 3.043 0 00-1.888-.659h-20v.7h20a2.368 2.368 0 011.455.505l22.508 17.832a1.793 1.793 0 01.683 1.415V160h.7V56.336a2.486 2.486 0 00-.948-1.962zM194.428 55.643a.661.661 0 00.41-1.179l-22.848-18.1a.661.661 0 00-1.071.518v13.413a5.354 5.354 0 005.347 5.348zm-.103-.699h-18.058a4.656 4.656 0 01-4.651-4.651v-13.34zM193.55 159.423a28.95 28.95 0 10.001 0zm0 .644a28.3 28.3 0 11-.001 0zM122.857 0a28.95 28.95 0 10.001 0zm0 .68a28.29 28.29 0 11-.001 0zM29 100.43a28.924 28.924 0 10.001 0m0 .57a28.32 28.32 0 11-.001 0"/>
</svg>
