<svg xmlns="http://www.w3.org/2000/svg" viewBox="0 0 89.596 108.495">
	<path fill="currentColor" d="M43.38 25.77c.06.28.49.23.72.36s.38.36.64.36.59-.09.61-.32-.4-.49-.68-.61a1.4 1.4 0 00-1.17-.02l-.13.23zm-3.92.72.64-.36s.66-.09.74-.34l-.13-.23a1.4 1.4 0 00-1.17.02c-.28.13-.72.32-.68.61a.5.3-5 00.59.3zM86.31 85.56c-.76-.85-1.12-2.46-1.53-4.17s-.83-3.56-2.23-4.75a5 5 0 00-1.72-1.04c1.95-5.79 1.19-11.55-.78-16.76s-6.63-11.95-9.85-15.76-7.14-8.88-7.08-15.26C63.23 18.1 64.21.02 47.07 0 25.37-.04 30.79 21.91 30.56 28.65a24.57 24.57 0 01-4.77 13.71c-4 4.77-9.64 12.46-12.31 20.49a24.36 24.36 0 00-1.31 11.29c-1.38 1.23-2.42 3.12-3.52 4.28a9.1 9.1 0 01-3.6 1.76A6.56 6.56 0 001.13 83.25 9 9 0 00.79 88.38c.25 1.72.53 3.33.17 4.41C-.14 95.84-.29 97.95.49 99.5s2.42 2.23 4.26 2.61c3.67.76 8.64.57 12.56 2.65s8.45 2.99 11.84 2.2a7.68 7.68 0 005.49-4.28c2.65-.02 5.57-1.14 10.23-1.4s7.12 1.12 11.68.87l.53 1.42v.02a8.5 8.5 0 008.54 4.87c3.52-.28 7.22-2.33 10.23-5.91s7.63-4.92 10.79-6.82c1.57-.95 2.84-2.14 2.94-3.88s-.93-3.66-3.28-6.29zM44.71 18.5a5 5 0 019.32-.09A8.43 8.43 0 0153.12 26.98l-2.67-1.04.83-.97c1.02-2.5-.04-5.72-1.93-5.79s-2.94 2.29-2.5 4.87l-2.75-.93a8.44 8.44 0 01.61-4.62zm-8.62-2.44a4 6.5 0 014.05 7.1l-2.16.97c.25-1.89-.7-4.26-2.03-4.15-1.78.15-2.08 4.49-.38 5.95l-1.25 1.17c-3.31-3.09-2.23-11.04 1.78-11.04zM33.21 28.92l2.99-2.23c1-.93 2.86-3.01 5.91-3.01a10.19 10.19 0 015.49 1.89c1.33.87 2.39.93 4.79 1.97 1.78.74 2.9 2.06 2.23 3.86s-2.33 3.05-4.81 3.83-4.2 3.39-8.09 3.16a5.9 5.9 0 01-2.03-.45c-1.7-.74-2.58-2.2-4.24-3.18a6.17 6.17 0 01-3.12-3.24 2.28 2.28 0 01.89-2.61zm.7 70.77c-.57 7.44-9.3 7.29-15.96 3.81s-14.54-1.38-16.21-4.64c-.51-1-.51-2.69.55-5.59v-.04c.51-1.61.13-3.39-.13-5.06s-.38-3.18.19-4.24a4.85 4.85 0 013.14-2.39c2.18-.78 2.5-.72 4.15-2.1 1.17-1.21 2.01-2.73 3.03-3.81a3.83 3.83 0 013.75-1.46c1.72.25 3.2 1.44 4.64 3.39l4.15 7.54c2.01 4.22 9.13 10.26 8.69 14.6zM33.61 94.2a45.48 45.48 0 00-3.05-4.15c1.5 0 3.01-.47 3.54-1.89s0-3.16-1.57-5.28C29.67 79.03 24.41 76 24.41 76a11.45 11.45 0 01-5.21-6.33 14.35 14.35 0 01-.06-7.46c1.1-4.85 3.94-9.58 5.76-12.54.49-.36.17.68-1.84 4.41s-5.17 11.29-.55 17.46A36.59 36.59 0 0125.43 58.5c2.54-5.81 7.9-15.87 8.33-23.88l1.31.87 2.67 2.18c2.63 2.12 6.04 1.95 8.98.25a23.37 23.37 0 013.37-1.91 9.05 9.05 0 004.72-3.18A109.44 109.44 0 0062.7 53.12a47.68 47.68 0 015 13.69 8.43 8.43 0 012.31.3c2.92-7.56-2.48-15.72-4.94-17.99-1-.97-1.04-1.4-.55-1.38a26.14 26.14 0 017.46 12.5 16.01 16.01 0 01.09 7.56c3.48 1.44 7.61 3.79 6.5 7.37l-.89 0c.68-2.14-.83-3.73-4.83-5.53s-7.63-1.82-8.12 2.65c-2.56.89-3.88 3.12-4.53 5.79a46.77 46.77 0 00-.93 8.45 33.18 33.18 0 01-1.44 6.14C51.03 97.53 41.58 99.65 33.61 94.2zm54.54-2.44c-.19 3.56-8.73 4.22-13.39 9.85-2.8 3.33-6.23 5.17-9.24 5.4a6.93 6.93 0 01-7.14-4.09c-1-2.35-.51-4.89.23-7.69s1.95-6.1 2.1-8.6a47.68 47.68 0 01.89-8.2c.55-2.18 1.4-3.64 2.9-4.47l.21-.11c.17 2.8 1.55 5.64 3.98 6.25s6.5-1.59 8.14-3.45c1.91-.06 3.33-.19 4.79 1.08 2.1 1.8 1.5 6.42 3.62 8.81s2.97 4.13 2.9 5.21zM34.03 31.51l1.7 1.5a9.37 9.37 0 005.79 2.25c2.46 0 4.77-1.25 6.74-2.29l3.14-2.2c.83-.72 1.25-1.33.66-1.4s-.55.55-1.27 1.08l-2.94 2.08c-1.57.89-4.13 2.16-6.33 2.16a8.5 8.5 0 01-5.28-2.06l-1.63-1.46c-.32-.3-.5-.97-.9-1.04s-.38.78.36 1.38z"/>
</svg>
