<svg xmlns="http://www.w3.org/2000/svg" viewBox="0 0 954.053 1117.088">
	<path fill="currentColor" d="M924.45 896.929c-32.758-13.416-46.771-31.22-45.416-57.785s-16.2-53.719-24.55-62.693c5.047-19.28 19.8-85.976.015-143.908S768.343 475.831 701.372 382.739c-27.415-38.23-28.711-79.786-30.209-127.906s-3.055-97.92-28.649-155.752S558.843 0 489.303 0s-83.833 12.929-116.511 35.469c-66.916 46.182-58.071 146.871-52.218 213.5 5.9 90.353 2.352 124.745-2.285 135.2l-33.4 46.856-49.507 67.9c-15.02 22.484-32.388 68.41-46.38 108.4l-29.319 73.424a99.973 99.973 0 00-9.695 75.1c-6.754 4.692-16.511 13.929-24.748 31.341s-30.154 32.659-72.157 40.736l-39.571 24.122.421 54.664-5.622 61.627-6.373 19.862 3.758 31.286c15.863 24.25 62.151 32.8 109.8 38.428l177.468 51.085c54.294.801 73.216-26.987 79.216-38.399q112.563-41.601 240.066-1.918l36.058 39.278 40.556 9.138c15.145 0 46.944-3.824 71.3-29.444l156.554-97.488c24.895-13.8 38.479-33.52 37.267-54.1S941.653 903.972 924.45 896.929zm-551.113-4.956c-3.1-21.829-31.18-43.479-63.7-68.546s-56.73-43.732-65.033-63.407c-17.159-40.589-3.633-111.959 19.95-148.709l30.381-73.292c9.94-29.14 20.221-59.268 31.718-72.457s35.033-60.656 38.014-92.232c17.049 16.277 43.5 36.93 67.93 36.93s52.2-20.511 75.981-34.245 45.779-26.451 55.291-27.781c16.31 23.419 111.08 233.143 120.763 300.5s-.432 97.345-4.5 114.6l-11.281-.809c-26.4 0-33.385 14.409-35.205 23.012l-5.227 109.889c-9.545 12.127-57.814 69.234-127.115 79.5l-78.343 6.182-38.644-2.384-34.824-39.846c13.736-6.784 27.463-21.091 23.844-46.905zm44.189-657.021-3.937-5.644c-3.8-21.884-18.313-37.769-34.5-37.769s-20.906 9.131-25.045 19.386c3.63-22.5 16.379-39.164 31.506-39.164s32.769 23.939 32.769 52.273zm138.029 16.874a55.459 55.459 0 002.505-16.6c0-25.69-16.3-45.816-37.106-45.816s-36.879 20.551-36.634 50.984l-3.153-1.205A70.045 70.045 0 01477.643 217.16c0-30.718 19.632-55.712 43.768-55.712s43.768 24.994 43.768 55.712A65.589 65.589 0 01555.556 251.826Zm-17.8 59.788-29.279 17.846c-17.28 10.475-57.741 35.011-68.725 36.45s-12.076-1.89-29.938-13.928-30.737-25.792-32.1-31.077l28.953-23.5c15.709-14.606 31.517-24.422 39.34-24.422s33.044 10.773 49.607 17.38l18.917 7.362C529.192 302.766 536.833 309.2 537.759 311.615Zm131.66 682.6 16.247-117.921-1.538-21.338-1.037-39.131c1.17 16.7 4.884 50.8 32.155 62.692l27.605 5.34c27.319 0 57.631-13.4 70.047-25.818l17.767-23.338c-.406 36.223 11.849 69.677 35.172 82.006l34.126 23.221-133.388 80.6c-23.917 25.169-50.969 42.076-67.3 42.076s-37.697-31.883-29.852-68.388zM62.982 877.458l73.465-24.25 40.93-57.227 46.3 40.848 78.64 122.477c13.116 14.053 34.348 41.072 29.125 64.246s-24.181 32.6-28.982 35.835l-12.717 1.613-106.351-36.643-128.012-29.506 11.841-58.089z"/>
</svg>