<svg xmlns="http://www.w3.org/2000/svg" viewBox="0 0 95.134 113.21">
	<path fill="var(--text-color)" d="M95.134 83.05a25 25 0 01-2.957-44.658c-4.752-6.8-11.93-10.54-21.408-11.272s-18.779 5.23-22.368 5.23-12.486-4.979-19.31-4.979C14.988 27.6 0 38.62 0 61.038a63 63 0 003.64 20.523c3.235 9.276 14.912 32.023 27.094 31.644 6.369-.152 10.868-4.524 19.158-4.524s12.208 4.524 19.31 4.524c12.284-.177 22.848-20.855 25.932-30.155zM65.235 18.325c6.9-8.189 6.268-15.645 6.066-18.324-6.092.349-13.144 4.149-17.162 8.82-4.423 5-7.026 11.2-6.47 18.172 6.6.505 12.612-2.881 17.566-8.669zM47.669 27A21 15.5-54 0071.301 0 24 21-42 0047.669 27"/>
</svg>
