<svg version="1.1" viewBox="0 0 162.8122 84.4642" xmlns="http://www.w3.org/2000/svg">
	<path fill="var(--text-color)" d="M14.1 8.2498a1 1 0 00-1-1h-7.1a1 1 0 00-1 1v5.874a1 1 0 01-1 1h-3a1 1 0 00-1 1v6.17a1 1 0 001 1h2.9a1 1 0 011 1v20.537c0 10.248 8.0937 17.3173 16.4954 17.3173 1.4339 0 1.9469-.1025 1.9469-1.0244v-6.1491c0-.6145-.3079-.8187-.82-1.0228-3.0735-1.3324-5.2265-2.05-6.1468-3.1776-1.5376-1.9464-2.2547-3.7918-2.2547-5.9428v-20.492a1 1 0 011-1h7.1974a1 1 0 001-1v-6.197a1 1 0 00-1-1h-7.2182a1 1 0 01-1-1zM74.7147 70.6637a13.8 12.8 0 00-13.836-12.8072h-12.0876c-1.8433-.8188-2.7657-1.8439-2.7657-3.4829s.9224-2.46 2.6641-3.4843c1.3317.1025 2.3557.2057 2.9703.2057 10.76 0 18.444-7.5833 18.444-17.4173v-17.3186a1 1 0 00-1-1h-6.1733a1 1 0 00-1 1v1.2308c0 .7161-.3318 1.1265-.7412 1.1265-1.4339 0-4.4063-3.3808-9.5297-3.3808-10.7577 0-18.4413 7.5813-18.4413 17.4186v.9235c0 3.7901 1.1265 7.1702 2.664 9.1172 2.4589 3.0749 4 4.5088 3.9964 4.9187s-1.9484 2.4589-1.9484 6.6604c0 2.8684 1.4348 4.7136 1.4348 5.6339s-1.5364 1.6407-3.7911 4c-1.3319 1.4313-2.3557 4-2.3557 6.6563v1a13.8 12.8 0 0013.8307 12.8H60.8787a13.8 12.8 0 0013.8356-12.8zM60.8787 33.6824a1 1 0 01-18.444 0v-1a1 1 0 0118.444 0zm4.6144 38a4.6 4.6 0 01-4.6144 4.6183h-13.8293a4.6 4.6 0 01-4.6109-4.6109v-1.0261a4.6 4.6 0 014.6109-4.6104h13.8293a4.6 4.6 0 014.6104 4.6104zM142.3187 32.7526a17.4 17.4 0 00-17.4173-17.4186c-3.5869 0-6.4557.7177-8.812 2.2543s-3.3817 2.8697-3.8948 2.8697-1.5364-1.2307-3.7896-2.7683-4.9187-2.3557-8.0948-2.3557c-4.9176 0-8.0947 3.4833-9.5296 3.4833-.4095 0-.7161-.4088-.7161-1.1276V16.3574a1 1 0 00-1-1h-6.173a1 1 0 00-1 1v44.06a1 1 0 001 1h7.1729a1 1 0 001-1v-27.6654a3.2 3.6 0 0116.4181 0v27.6653a1 1 0 001 1h7.1975a1 1 0 001-1v-27.6653a3.2 3.6 0 0116.4177 0v27.6653a1 1 0 001 1h7.1973a1 1 0 001-1z"/>
	<path fill="var(--accent-color)" stroke="var(--accent-color)" d="M140.1583.95h21.7039v21.7039z" stroke-linejoin="round" stroke-width="1.9"/>
</svg>