<svg xmlns="http://www.w3.org/2000/svg" viewBox="0 0 384 512">
	<!-- Font Awesome Pro 5.15.4 by @fontawesome - https://fontawesome.com License - https://fontawesome.com/license (Commercial License) -->
	<path fill="currentColor" d="M298.42 288h30.63a22.5 22.5 0 0017.5-37.11L268.42 160h28.89a22.5 22.5 0 0016.62-37.69L203.66 4.83a16 16 0 00-23.32 0L70.06 122.31A22.5 22.5 0 0086.69 160h28.89l-78.14 90.91A22.5 22.5 0 0054.95 288h30.63L5.69 378.49A22.5 22.5 0 0023.14 416H160v24.45l-30.29 48.4a15 15 0 0014.31 23.16h95.96a15 15 0 0014.31-23.16L224 440.45V416h136.86a22.5 22.5 0 0017.45-37.51z"/>
</svg>