<svg xmlns="http://www.w3.org/2000/svg" viewBox="0 0 1160.133 176.58">
  <path fill="var(--text-color)" d="M84.65 174.102h-84.649V31.962h32.016V148.132h52.633zm19.13 0V31.962h51.741q23.789 0 36.576 8.723t12.787 24.582a29.094 29.094 0 01-7.781 20.122A40.88 40.88 0 01177.232 97.382v.4q15.166 1.883 24.235 11.2a31.324 31.324 0 019.07 22.7q0 19.527-13.976 30.975T158.396 174.102zm32.016-118.549v33.7h14.075q9.912 0 15.612-4.807t5.7-13.233q0-15.661-23.393-15.661Zm0 57.49v37.468h17.346q11.1 0 17.4-5.154T176.832 131.282q0-8.524-6.2-13.381t-17.3-4.857zm186.149 12.093V174.102H289.932V31.962h50.155q53.724 0 53.724 45.3 0 21.41-15.413 34.643t-41.185 13.233zm0-68.592V100.852H334.532q25.573 0 25.573-22.4t-25.573-21.906zM442.873 174.102H411.551V23.834h31.322zM553.691 174.102H524.053V159.531h-.4Q513.447 176.58 493.425 176.58q-14.769 0-23.244-8.376T461.706 145.852q0-29.538 34.99-34.1L524.252 108.087q0-16.652-18.04-16.652t-34.494 10.8V78.648q6.542-3.37 17.891-5.947a94.049 94.049 0 0120.667-2.577q43.415 0 43.415 43.316zM524.252 132.868v-6.839L505.815 128.407Q490.55 130.39 490.55 142.185a11.385 11.385 0 003.717 8.772q3.717 3.42 10.061 3.42a18.544 18.544 0 0014.373-6.1Q524.252 142.185 524.252 132.868zM676.502 174.102H645.278V117.702q0-23.591-16.851-23.591a16.719 16.719 0 00-13.381 6.245q-5.253 6.245-5.253 15.859V174.102H578.471V72.602h31.322v16.058h.4q11.2-18.536 32.611-18.536 33.7 0 33.7 41.829zM799.313 174.102H768.09V117.702q0-23.591-16.851-23.591a16.719 16.719 0 00-13.381 6.245q-5.253 6.245-5.253 15.859V174.102H701.282V72.602h31.322v16.058h.4q11.2-18.536 32.611-18.536 33.7 0 33.7 41.829zM915.284 132.273H849.071q1.586 22.1 27.853 22.1 16.751 0 29.439-7.93v22.6q-14.075 7.533-36.576 7.533t-38.162-13.629-13.58-38.013q0-25.276 14.67-40.045t36.08-14.769 34.345 13.183 12.142 35.783zM886.242 113.043q0-21.807-17.644-21.807-7.533 0-13.034 6.245a28.343 28.343 0 00-6.691 15.562ZM1000.132 100.852a27.17 27.17 0 00-13.183-3.073q-10.209 0-15.958 7.484T965.241 125.632V174.102H933.919V72.602h31.322v18.833h.4q7.434-20.617 26.763-20.617a20.17 20.17 0 017.731 1.189z" fill="#3a3637"/>
  <path fill="var(--accent-color)" d="M1160.133 97.848V0H1047.66z"/>
</svg>